<svg width="404" height="329" viewBox="0 0 404 329" fill="none" xmlns="http://www.w3.org/2000/svg">
<path fill-rule="evenodd" clip-rule="evenodd" d="M217.724 0.175113C257.11 -3.07946 281.154 39.7751 306.188 66.8352C325.238 87.4279 330.196 113.9 344.556 137.274C360.347 162.977 388.344 182.231 394.715 210.929C402.526 246.111 415.136 292.681 384.213 315.9C351.753 340.273 301.552 310.221 259.051 312.794C228.564 314.639 201.535 330.99 171.077 328.798C135.891 326.267 101.019 318.13 72.7959 299.394C40.5477 277.985 7.1554 251.197 1.10927 215.962C-4.94389 180.686 14.5116 143.864 41.5616 117.371C65.7658 93.6657 110.425 99.8305 139.292 80.6262C171.956 58.8958 177.012 3.53918 217.724 0.175113Z" fill="#8CC8CC"/>
</svg>
