<svg width="427" height="327" viewBox="0 0 427 327" fill="none" xmlns="http://www.w3.org/2000/svg">
<path fill-rule="evenodd" clip-rule="evenodd" d="M275.066 8.74336C309.366 13.0519 348.3 3.72917 375.319 25.2845C402.951 47.3284 408.503 86.3695 415.714 120.949C423.171 156.705 434.969 196.121 417.653 228.274C400.518 260.093 361.157 271.254 327.562 284.634C299.695 295.732 269.982 293.11 240.529 298.814C203.546 305.977 166.675 337.995 132.359 322.438C98.6475 307.156 101.505 257.408 81.1042 226.543C56.4035 189.172 -2.74264 167.265 0.271095 122.595C3.24063 78.581 56.9579 56.8684 94.1543 33.1142C122.845 14.7921 155.498 6.45812 189.249 1.91142C218.273 -1.99837 246.004 5.09284 275.066 8.74336Z" fill="white"/>
</svg>
